<svg width="87" height="43" viewBox="0 0 87 43" fill="none" xmlns="http://www.w3.org/2000/svg">
<path d="M8.65909 35.5531C8.65909 36.4935 8.48295 37.2989 8.13068 37.9693C7.78125 38.6369 7.30398 39.1483 6.69886 39.5034C6.09659 39.8585 5.41335 40.0361 4.64915 40.0361C3.88494 40.0361 3.20028 39.8585 2.59517 39.5034C1.9929 39.1454 1.51563 38.6327 1.16335 37.965C0.81392 37.2946 0.639205 36.4906 0.639205 35.5531C0.639205 34.6128 0.81392 33.8088 1.16335 33.1412C1.51563 32.4707 1.9929 31.9579 2.59517 31.6028C3.20028 31.2477 3.88494 31.0702 4.64915 31.0702C5.41335 31.0702 6.09659 31.2477 6.69886 31.6028C7.30398 31.9579 7.78125 32.4707 8.13068 33.1412C8.48295 33.8088 8.65909 34.6128 8.65909 35.5531ZM7.0696 35.5531C7.0696 34.8912 6.96591 34.3329 6.75852 33.8784C6.55398 33.421 6.26989 33.0758 5.90625 32.8429C5.54261 32.6071 5.12358 32.4892 4.64915 32.4892C4.17472 32.4892 3.75568 32.6071 3.39205 32.8429C3.02841 33.0758 2.7429 33.421 2.53551 33.8784C2.33097 34.3329 2.22869 34.8912 2.22869 35.5531C2.22869 36.215 2.33097 36.7747 2.53551 37.2321C2.7429 37.6866 3.02841 38.0318 3.39205 38.2676C3.75568 38.5006 4.17472 38.617 4.64915 38.617C5.12358 38.617 5.54261 38.5006 5.90625 38.2676C6.26989 38.0318 6.55398 37.6866 6.75852 37.2321C6.96591 36.7747 7.0696 36.215 7.0696 35.5531ZM17.3256 31.1895V39.9167H15.9194L11.8072 33.9721H11.7347V39.9167H10.1538V31.1895H11.5685L15.6765 37.1383H15.7532V31.1895H17.3256ZM19.0483 39.9167V31.1895H22.3892C23.0199 31.1895 23.544 31.2889 23.9616 31.4878C24.3821 31.6838 24.696 31.9523 24.9034 32.2932C25.1136 32.6341 25.2188 33.0204 25.2188 33.4523C25.2188 33.8074 25.1506 34.1114 25.0142 34.3642C24.8778 34.6142 24.6946 34.8173 24.4645 34.9736C24.2344 35.1298 23.9773 35.242 23.6932 35.3102V35.3954C24.0028 35.4125 24.2997 35.5077 24.5838 35.681C24.8707 35.8514 25.1051 36.0929 25.2869 36.4054C25.4688 36.7179 25.5597 37.0957 25.5597 37.5389C25.5597 37.9906 25.4503 38.3969 25.2315 38.7577C25.0128 39.1156 24.6832 39.3983 24.2429 39.6057C23.8026 39.8131 23.2486 39.9167 22.581 39.9167H19.0483ZM20.6293 38.5957H22.3295C22.9034 38.5957 23.3168 38.4864 23.5696 38.2676C23.8253 38.046 23.9531 37.7619 23.9531 37.4153C23.9531 37.1568 23.8892 36.9239 23.7614 36.7165C23.6335 36.5062 23.4517 36.3415 23.2159 36.2221C22.9801 36.1 22.6989 36.0389 22.3722 36.0389H20.6293V38.5957ZM20.6293 34.9011H22.1932C22.4659 34.9011 22.7116 34.8514 22.9304 34.752C23.1491 34.6497 23.321 34.5062 23.446 34.3216C23.5739 34.1341 23.6378 33.9125 23.6378 33.6568C23.6378 33.3187 23.5185 33.0403 23.2798 32.8216C23.044 32.6028 22.6932 32.4935 22.2273 32.4935H20.6293V34.9011ZM34.7333 35.5531C34.7333 36.4935 34.5572 37.2989 34.2049 37.9693C33.8555 38.6369 33.3782 39.1483 32.7731 39.5034C32.1708 39.8585 31.4876 40.0361 30.7234 40.0361C29.9592 40.0361 29.2745 39.8585 28.6694 39.5034C28.0671 39.1454 27.5898 38.6327 27.2376 37.965C26.8881 37.2946 26.7134 36.4906 26.7134 35.5531C26.7134 34.6128 26.8881 33.8088 27.2376 33.1412C27.5898 32.4707 28.0671 31.9579 28.6694 31.6028C29.2745 31.2477 29.9592 31.0702 30.7234 31.0702C31.4876 31.0702 32.1708 31.2477 32.7731 31.6028C33.3782 31.9579 33.8555 32.4707 34.2049 33.1412C34.5572 33.8088 34.7333 34.6128 34.7333 35.5531ZM33.1438 35.5531C33.1438 34.8912 33.0401 34.3329 32.8327 33.8784C32.6282 33.421 32.3441 33.0758 31.9805 32.8429C31.6168 32.6071 31.1978 32.4892 30.7234 32.4892C30.2489 32.4892 29.8299 32.6071 29.4663 32.8429C29.1026 33.0758 28.8171 33.421 28.6097 33.8784C28.4052 34.3329 28.3029 34.8912 28.3029 35.5531C28.3029 36.215 28.4052 36.7747 28.6097 37.2321C28.8171 37.6866 29.1026 38.0318 29.4663 38.2676C29.8299 38.5006 30.2489 38.617 30.7234 38.617C31.1978 38.617 31.6168 38.5006 31.9805 38.2676C32.3441 38.0318 32.6282 37.6866 32.8327 37.2321C33.0401 36.7747 33.1438 36.215 33.1438 35.5531ZM36.88 39.9167H35.1925L38.2649 31.1895H40.2166L43.2933 39.9167H41.6058L39.2749 32.9792H39.2067L36.88 39.9167ZM36.9354 36.4949H41.5376V37.7648H36.9354V36.4949ZM44.4428 39.9167V31.1895H47.7156C48.386 31.1895 48.9485 31.306 49.4031 31.5389C49.8604 31.7719 50.2056 32.0986 50.4386 32.519C50.6744 32.9366 50.7923 33.4239 50.7923 33.9807C50.7923 34.5403 50.6729 35.0261 50.4343 35.4381C50.1985 35.8471 49.8505 36.1639 49.3903 36.3883C48.93 36.6099 48.3647 36.7207 47.6942 36.7207H45.3633V35.4082H47.4812C47.8732 35.4082 48.1942 35.3542 48.4442 35.2463C48.6942 35.1355 48.8789 34.975 48.9982 34.7648C49.1204 34.5517 49.1815 34.2903 49.1815 33.9807C49.1815 33.671 49.1204 33.4068 48.9982 33.1881C48.8761 32.9665 48.69 32.7989 48.44 32.6852C48.19 32.5687 47.8675 32.5105 47.4727 32.5105H46.0238V39.9167H44.4428ZM48.9513 35.9622L51.1119 39.9167H49.3477L47.2255 35.9622H48.9513ZM55.2049 39.9167H52.2475V31.1895H55.2646C56.131 31.1895 56.8754 31.3642 57.4975 31.7136C58.1225 32.0602 58.6026 32.5588 58.9379 33.2094C59.2731 33.8599 59.4407 34.6383 59.4407 35.5446C59.4407 36.4537 59.2717 37.2349 58.9336 37.8883C58.5984 38.5417 58.114 39.0432 57.4805 39.3926C56.8498 39.742 56.0913 39.9167 55.2049 39.9167ZM53.8285 38.5489H55.1282C55.7362 38.5489 56.2433 38.4381 56.6495 38.2165C57.0558 37.992 57.3612 37.6582 57.5657 37.215C57.7702 36.769 57.8725 36.2122 57.8725 35.5446C57.8725 34.877 57.7702 34.323 57.5657 33.8827C57.3612 33.4395 57.0586 33.1085 56.658 32.8898C56.2603 32.6682 55.766 32.5574 55.1751 32.5574H53.8285V38.5489ZM62.5238 31.1895V39.9167H60.9428V31.1895H62.5238ZM71.4077 31.1895V39.9167H70.0014L65.8892 33.9721H65.8168V39.9167H64.2358V31.1895H65.6506L69.7585 37.1383H69.8352V31.1895H71.4077ZM78.9769 33.9764C78.9059 33.7463 78.8079 33.5403 78.6829 33.3585C78.5607 33.1739 78.413 33.0162 78.2397 32.8855C78.0692 32.7548 77.8732 32.6568 77.6516 32.5915C77.43 32.5233 77.1886 32.4892 76.9272 32.4892C76.4585 32.4892 76.0408 32.6071 75.6744 32.8429C75.3079 33.0787 75.0195 33.4253 74.8093 33.8827C74.6019 34.3372 74.4982 34.8912 74.4982 35.5446C74.4982 36.2037 74.6019 36.7619 74.8093 37.2193C75.0167 37.6767 75.305 38.0247 75.6744 38.2633C76.0437 38.4991 76.4727 38.617 76.9613 38.617C77.4045 38.617 77.788 38.5318 78.1119 38.3614C78.4386 38.1909 78.69 37.9494 78.8661 37.6369C79.0423 37.3216 79.1303 36.9523 79.1303 36.529L79.4883 36.5844H77.119V35.3486H80.6602V36.3969C80.6602 37.144 80.5011 37.7903 80.1829 38.3358C79.8647 38.8812 79.4272 39.3017 78.8704 39.5971C78.3136 39.8898 77.6744 40.0361 76.9528 40.0361C76.1488 40.0361 75.4428 39.8557 74.8349 39.4949C74.2298 39.1312 73.7567 38.6156 73.4158 37.948C73.0778 37.2775 72.9087 36.4821 72.9087 35.5616C72.9087 34.8571 73.0082 34.2278 73.207 33.6739C73.4087 33.1199 73.69 32.6497 74.0508 32.2633C74.4116 31.8741 74.8349 31.5787 75.3207 31.377C75.8065 31.1724 76.3349 31.0702 76.9059 31.0702C77.3888 31.0702 77.8391 31.1412 78.2567 31.2832C78.6744 31.4224 79.0451 31.6213 79.369 31.8798C79.6957 32.1383 79.9641 32.4452 80.1744 32.8003C80.3846 33.1554 80.5224 33.5474 80.5877 33.9764H78.9769Z" fill="#0B6CC1"/>
<path fill-rule="evenodd" clip-rule="evenodd" d="M86.6079 1.06287L78.3575 27.2382C78.3285 27.3303 78.2387 27.3917 78.1332 27.3917H74.9566C74.8812 27.3917 74.8162 27.362 74.7709 27.3077C74.7255 27.253 74.7123 27.1883 74.7329 27.1225L77.0386 19.8058C77.0518 19.7631 77.0508 19.7232 77.036 19.681L70.2174 1.0715C70.1931 1.0048 70.2042 0.937625 70.2496 0.881002C70.295 0.82438 70.3615 0.793192 70.4385 0.793192H73.8008C73.9038 0.793192 73.9908 0.850773 74.023 0.939065L78.5654 13.55C78.5981 13.6397 78.6879 13.6978 78.7918 13.6959C78.8958 13.6939 78.9829 13.6335 79.0114 13.5428L82.979 0.946744C83.0086 0.854613 83.0978 0.793192 83.2039 0.793192H86.3836C86.4591 0.793192 86.524 0.822943 86.5694 0.877166C86.6153 0.931868 86.6285 0.996648 86.6079 1.06287ZM54.6148 27.4167H51.3248C51.2953 27.4167 51.2673 27.4119 51.2414 27.4027H51.1169L50.4176 25.1206L49.1568 21.1657C49.1272 21.0731 49.0381 21.0116 48.9325 21.0116H42.4585C42.3535 21.0116 42.2648 21.0726 42.2348 21.1647L41.3729 23.8245L40.2583 27.4027H40.1185C40.0926 27.4119 40.0641 27.4167 40.0346 27.4167H36.7466C36.7171 27.4167 36.6886 27.4119 36.6627 27.4027H36.5081L36.5413 27.3044C36.5107 27.254 36.5049 27.1969 36.5239 27.1398L40.4367 15.5884L45.6203 0L51.8478 18.4464L54.837 27.1393C54.8539 27.1887 54.8518 27.2382 54.8312 27.2837L54.8713 27.4027H54.6988C54.6729 27.4119 54.6444 27.4167 54.6148 27.4167ZM67.1395 4.17085H61.8356C61.7068 4.17085 61.6023 4.26538 61.6023 4.3815L61.5844 27.2055C61.5844 27.3217 61.4793 27.4167 61.3511 27.4167H58.1777C58.0495 27.4167 57.9444 27.3217 57.9444 27.2051V1.02976C57.9444 0.913154 58.0495 0.818142 58.1777 0.818142H67.1395C67.2678 0.818142 67.3728 0.913154 67.3728 1.02976V3.95924C67.3728 4.07536 67.2678 4.17085 67.1395 4.17085ZM33.151 27.4167H29.9777C29.8494 27.4167 29.7444 27.3217 29.7444 27.2051V15.2199C29.7444 15.1037 29.6399 15.0087 29.5111 15.0087H22.0919C21.9632 15.0087 21.8587 15.1037 21.8587 15.2199V27.2051C21.8587 27.3217 21.7536 27.4167 21.6254 27.4167H18.452C18.3232 27.4167 18.2187 27.3217 18.2187 27.2051V1.02976C18.2187 0.913154 18.3232 0.818142 18.452 0.818142H21.6254C21.7536 0.818142 21.8587 0.913154 21.8587 1.02976V11.431C21.8587 11.5471 21.9632 11.6421 22.0919 11.6421H29.5111C29.6399 11.6421 29.7444 11.5471 29.7444 11.431V1.02976C29.7444 0.913154 29.8494 0.818142 29.9777 0.818142H33.151C33.2798 0.818142 33.3843 0.913154 33.3843 1.02976V27.2051C33.3843 27.3217 33.2798 27.4167 33.151 27.4167ZM15.8618 27.4167H11.8762C11.7833 27.4167 11.7036 27.3706 11.6646 27.2938L5.39377 14.9852C5.34732 14.894 5.24019 14.8456 5.132 14.8672C5.02381 14.8888 4.94887 14.9732 4.94887 15.0735V27.2051C4.94887 27.3217 4.84437 27.4167 4.7156 27.4167H1.56754C1.43877 27.4167 1.33427 27.3217 1.33427 27.2051V1.02976C1.33427 0.913154 1.43877 0.818142 1.56754 0.818142H4.7156C4.84437 0.818142 4.94887 0.913154 4.94887 1.02976V11.1056C4.94887 11.204 5.02012 11.2865 5.12514 11.3105C5.23016 11.3345 5.33624 11.2923 5.38743 11.2059L11.5009 0.929468C11.5426 0.85893 11.6181 0.818142 11.7062 0.818142H15.3879C15.4734 0.818142 15.5467 0.85653 15.5895 0.923229C15.6327 0.989928 15.6333 1.0667 15.591 1.1334L8.19931 12.9708C8.15973 13.0341 8.15815 13.1056 8.19457 13.1709L16.0692 27.1091C16.1067 27.1763 16.104 27.2511 16.0602 27.3154C16.0169 27.3802 15.9452 27.4167 15.8618 27.4167ZM48.1108 17.5562L45.795 10.048C45.7607 10.0303 45.7211 10.0197 45.6784 10.0197C45.643 10.0197 45.6098 10.0269 45.5802 10.0394L43.2892 17.5658C43.3288 17.5951 43.3774 17.61 43.4317 17.61H47.9551C48.0153 17.61 48.068 17.5913 48.1108 17.5562Z" fill="#0B6CC1"/>
</svg>
