<svg width="42" height="44" viewBox="0 0 42 44" fill="none" xmlns="http://www.w3.org/2000/svg">
<path d="M2.97801 14.1346L4.81674 14.6739L4.62037 15.3342L2.78165 14.7949L2.97801 14.1346Z" fill="#0B6CC1"/>
<path d="M40.4581 40.6519L15.3398 43.0817C15.3127 43.0843 15.2863 43.0836 15.2606 43.0804L1.11668 41.1925L1.20939 40.5105L15.314 42.3934L40.3931 39.9674L40.4581 40.6519Z" fill="#0B6CC1"/>
<path d="M0.405577 33.9953L9.38804 35.7578L9.25413 36.4347L0.272308 34.6722L0.405577 33.9953Z" fill="#0B6CC1"/>
<path d="M0.159502 28.0514L7.14099 29.4095L7.00708 30.0858L0.025589 28.7276L0.159502 28.0514Z" fill="#0B6CC1"/>
<path d="M1.18301 21.6316L6.91035 22.5695L6.79897 23.2483L1.07098 22.311L1.18301 21.6316Z" fill="#0B6CC1"/>
<path fill-rule="evenodd" clip-rule="evenodd" d="M9.04738 4.86539L38.7483 10.3917V5.3264L9.04674 0L9.04738 4.86539Z" fill="#0B6CC1"/>
<path fill-rule="evenodd" clip-rule="evenodd" d="M16.9713 21.1954L41.3995 26.0042V20.9382L16.981 15.6353L16.9713 21.1954Z" fill="#0B6CC1"/>
<path fill-rule="evenodd" clip-rule="evenodd" d="M21.99 29.5446L41.2528 33.3179V28.4232L22.0106 23.661L21.99 29.5446Z" fill="#0B6CC1"/>
<path fill-rule="evenodd" clip-rule="evenodd" d="M26.5956 37.9202L40.4601 40.6411V35.7464L26.5956 32.0418V37.9202Z" fill="#0B6CC1"/>
<path fill-rule="evenodd" clip-rule="evenodd" d="M25.633 37.9025L1.10571 41.1709V36.6232L25.633 32.066V37.9025Z" fill="#33CC33"/>
<path fill-rule="evenodd" clip-rule="evenodd" d="M21.0336 29.5675L0.277802 34.6487V30.1004L21.0304 23.661L21.0336 29.5675Z" fill="#33CC33"/>
<path fill-rule="evenodd" clip-rule="evenodd" d="M15.9923 21.1801L0 28.7231V24.148L15.9949 15.657L15.9923 21.1801Z" fill="#33CC33"/>
<path fill-rule="evenodd" clip-rule="evenodd" d="M11.6128 12.905L1.0582 22.2958V17.7475L11.6128 7.5264V12.905Z" fill="#33CC33"/>
<path fill-rule="evenodd" clip-rule="evenodd" d="M8.05037 4.86539L2.77434 14.7936V11.0317L8.05037 0.112701V4.86539Z" fill="#33CC33"/>
<path fill-rule="evenodd" clip-rule="evenodd" d="M12.6124 12.9049L40.3002 18.1696V13.1042L12.6124 7.54861V12.9049Z" fill="#0B6CC1"/>
<path d="M41.2519 33.3178L32.7659 34.6378L32.6596 33.9584L41.1457 32.639L41.2519 33.3178Z" fill="#0B6CC1"/>
<path d="M41.3844 26.0112L33.9387 27.8393L33.7726 27.1707L41.2177 25.3426L41.3844 26.0112Z" fill="#0B6CC1"/>
<path d="M40.3093 18.1856L35.1395 20.7739L34.8253 20.1595L39.9952 17.5711L40.3093 18.1856Z" fill="#0B6CC1"/>
<path d="M38.7491 10.4052L34.0287 13.0426L33.6849 12.4447L38.4053 9.80661L38.7491 10.4052Z" fill="#0B6CC1"/>
</svg>
